<mxfile host="app.diagrams.net" modified="2024-06-06T14:20:37.955Z" agent="Mozilla/5.0 (X11; Ubuntu; Linux x86_64; rv:126.0) Gecko/20100101 Firefox/126.0" version="24.4.15" etag="ojjJmQ2Va7LdvwFBf96Y" type="github">
  <diagram name="Pagina-1" id="ZncVAzWas5USX-5Cy_43">
    <mxGraphModel>
      <root>
        <mxCell id="0" />
        <mxCell id="1" parent="0" />
      </root>
    </mxGraphModel>
  </diagram>
</mxfile>
